<svg width="43" height="22" viewBox="0 0 43 22" fill="none" xmlns="http://www.w3.org/2000/svg">
<g clip-path="url(#clip0_42_3258)">
<path d="M31.5638 0H11.4362C5.14628 0 0 4.95 0 11C0 17.05 5.14628 22 11.4362 22H31.5638C37.8537 22 43 17.05 43 11C43 4.95 37.8537 0 31.5638 0Z" fill="white"/>
<path d="M31.5638 0.891C32.9762 0.891 34.3485 1.1605 35.6408 1.6885C36.8931 2.2 38.0138 2.9315 38.9859 3.861C39.9523 4.7905 40.7128 5.874 41.2445 7.0785C41.7935 8.3215 42.0737 9.6415 42.0737 11C42.0737 12.3585 41.7935 13.6785 41.2445 14.9215C40.7128 16.126 39.9523 17.204 38.9859 18.139C38.0195 19.0685 36.8931 19.8 35.6408 20.3115C34.3485 20.8395 32.9762 21.109 31.5638 21.109H11.4362C10.0238 21.109 8.65146 20.8395 7.35918 20.3115C6.10691 19.8 4.98617 19.0685 4.0141 18.139C3.04774 17.2095 2.28723 16.126 1.75545 14.9215C1.20652 13.6785 0.92633 12.3585 0.92633 11C0.92633 9.6415 1.20652 8.3215 1.75545 7.0785C2.28723 5.874 3.04774 4.796 4.0141 3.861C4.98045 2.9315 6.10691 2.2 7.35918 1.6885C8.65146 1.1605 10.0238 0.891 11.4362 0.891H31.5638ZM31.5638 0H11.4362C5.14628 0 0 4.95 0 11C0 17.05 5.14628 22 11.4362 22H31.5638C37.8537 22 43 17.05 43 11C43 4.95 37.8537 0 31.5638 0Z" fill="black"/>
<g clip-path="url(#clip1_42_3258)">
<path d="M12.214 6.71548C11.8709 7.10598 11.322 7.41398 10.7731 7.36998C10.7044 6.84198 10.9732 6.28098 11.2877 5.93448C11.6308 5.53298 12.2312 5.24698 12.7172 5.22498C12.7744 5.77498 12.5514 6.31398 12.214 6.71548ZM12.7115 7.47448C11.9167 7.43048 11.2362 7.90898 10.8588 7.90898C10.4757 7.90898 9.89818 7.49648 9.26919 7.50748C8.45151 7.51848 7.691 7.96398 7.27358 8.67348C6.41587 10.0925 7.05058 12.1935 7.8797 13.3485C8.28568 13.9205 8.77172 14.5475 9.41215 14.5255C10.0183 14.5035 10.2584 14.146 10.9903 14.146C11.728 14.146 11.9395 14.5255 12.58 14.5145C13.2433 14.5035 13.6607 13.9425 14.0667 13.3705C14.5298 12.7215 14.7185 12.089 14.73 12.056C14.7185 12.045 13.4491 11.5775 13.4377 10.1695C13.4262 8.99248 14.4383 8.43148 14.4841 8.39848C13.9123 7.58448 13.0203 7.49648 12.7115 7.47448ZM17.3031 5.87948V14.454H18.6869V11.5225H20.6024C22.3522 11.5225 23.5816 10.3675 23.5816 8.69548C23.5816 7.02348 22.375 5.87948 20.6482 5.87948H17.3031ZM18.6869 7.00148H20.2822C21.483 7.00148 22.1692 7.61748 22.1692 8.70098C22.1692 9.78448 21.483 10.406 20.2765 10.406H18.6869V7.00148ZM26.109 14.52C26.9781 14.52 27.7844 14.0965 28.1503 13.4255H28.1789V14.454H29.4598V10.186C29.4598 8.94848 28.4305 8.15098 26.8466 8.15098C25.377 8.15098 24.2906 8.95948 24.2506 10.0705H25.4971C25.6 9.54248 26.109 9.19598 26.8066 9.19598C27.6528 9.19598 28.1274 9.57548 28.1274 10.274V10.747L26.4006 10.846C24.7938 10.9395 23.9246 11.572 23.9246 12.672C23.9246 13.783 24.8224 14.52 26.109 14.52ZM26.4806 13.5025C25.743 13.5025 25.2741 13.1615 25.2741 12.639C25.2741 12.1 25.7258 11.7865 26.5893 11.737L28.1274 11.6435V12.1275C28.1274 12.9305 27.4184 13.5025 26.4806 13.5025ZM31.1695 16.786C32.5189 16.786 33.1536 16.291 33.7083 14.7895L36.1385 8.23348H34.7318L33.1022 13.299H33.0736L31.4439 8.23348H29.9973L32.3417 14.476L32.2159 14.8555C32.0043 15.499 31.6612 15.7465 31.0494 15.7465C30.9407 15.7465 30.7292 15.7355 30.6434 15.7245V16.753C30.7234 16.775 31.0665 16.786 31.1695 16.786Z" fill="black"/>
</g>
</g>
<defs>
<clipPath id="clip0_42_3258">
<rect width="43" height="22" fill="white"/>
</clipPath>
<clipPath id="clip1_42_3258">
<rect width="29.2766" height="11.561" fill="white" transform="translate(6.86133 5.22498)"/>
</clipPath>
</defs>
</svg>
