<svg width="43" height="22" viewBox="0 0 43 22" fill="none" xmlns="http://www.w3.org/2000/svg">
<g clip-path="url(#clip0_42_3245)">
<path d="M31.5638 0H11.4362C5.14628 0 0 4.95 0 11C0 17.05 5.14628 22 11.4362 22H31.5638C37.8537 22 43 17.05 43 11C43 4.95 37.8537 0 31.5638 0Z" fill="white"/>
<path d="M31.5638 0.891C32.9762 0.891 34.3485 1.1605 35.6408 1.6885C36.8931 2.2 38.0138 2.9315 38.9859 3.861C39.9523 4.7905 40.7128 5.874 41.2445 7.0785C41.7935 8.3215 42.0737 9.6415 42.0737 11C42.0737 12.3585 41.7935 13.6785 41.2445 14.9215C40.7128 16.126 39.9523 17.204 38.9859 18.139C38.0195 19.0685 36.8931 19.8 35.6408 20.3115C34.3485 20.8395 32.9762 21.109 31.5638 21.109H11.4362C10.0238 21.109 8.65146 20.8395 7.35918 20.3115C6.10691 19.8 4.98617 19.0685 4.0141 18.139C3.04774 17.2095 2.28723 16.126 1.75545 14.9215C1.20652 13.6785 0.92633 12.3585 0.92633 11C0.92633 9.6415 1.20652 8.3215 1.75545 7.0785C2.28723 5.874 3.04774 4.796 4.0141 3.861C4.98045 2.9315 6.10691 2.2 7.35918 1.6885C8.65146 1.1605 10.0238 0.891 11.4362 0.891H31.5638ZM31.5638 0H11.4362C5.14628 0 0 4.95 0 11C0 17.05 5.14628 22 11.4362 22H31.5638C37.8537 22 43 17.05 43 11C43 4.95 37.8537 0 31.5638 0Z" fill="#3C4043"/>
<path d="M20.5041 11.781V15.1085H19.4062V6.89148H22.3168C23.0544 6.89148 23.6834 7.12798 24.198 7.60098C24.7241 8.07398 24.9871 8.65148 24.9871 9.33348C24.9871 10.032 24.7241 10.6095 24.198 11.077C23.6891 11.5445 23.0601 11.7755 22.3168 11.7755H20.5041V11.781ZM20.5041 7.90348V10.769H22.3396C22.7742 10.769 23.1402 10.626 23.4261 10.3455C23.7177 10.065 23.8664 9.72398 23.8664 9.33898C23.8664 8.95948 23.7177 8.62398 23.4261 8.34348C23.1402 8.05198 22.7799 7.90898 22.3396 7.90898H20.5041V7.90348Z" fill="#3C4043"/>
<path d="M27.8569 9.30048C28.6689 9.30048 29.3093 9.50948 29.7782 9.92748C30.2471 10.3455 30.4815 10.9175 30.4815 11.6435V15.1085H29.4351V14.3275H29.3894C28.9376 14.971 28.3315 15.29 27.5767 15.29C26.9306 15.29 26.3931 15.1085 25.9585 14.74C25.5239 14.3715 25.3066 13.915 25.3066 13.365C25.3066 12.782 25.5354 12.32 25.9928 11.979C26.4503 11.6325 27.0621 11.462 27.8226 11.462C28.4745 11.462 29.012 11.5775 29.4294 11.8085V11.5665C29.4294 11.198 29.2807 10.89 28.9777 10.6315C28.6746 10.373 28.3201 10.2465 27.9141 10.2465C27.3023 10.2465 26.8162 10.494 26.4617 10.9945L25.4953 10.4115C26.0271 9.66898 26.8162 9.30048 27.8569 9.30048ZM26.4388 13.3815C26.4388 13.6565 26.5589 13.8875 26.8048 14.069C27.0449 14.2505 27.3308 14.344 27.6568 14.344C28.1199 14.344 28.5316 14.179 28.8919 13.849C29.2521 13.519 29.4351 13.134 29.4351 12.6885C29.092 12.43 28.6174 12.298 28.0056 12.298C27.5596 12.298 27.1879 12.4025 26.8906 12.606C26.5875 12.8205 26.4388 13.079 26.4388 13.3815Z" fill="#3C4043"/>
<path d="M36.4513 9.48199L32.7917 17.578H31.6596L33.0205 14.7455L30.6074 9.48199H31.8025L33.5408 13.519H33.5637L35.2562 9.48199H36.4513Z" fill="#3C4043"/>
<path d="M16.1387 11.11C16.1387 10.7657 16.1067 10.4362 16.0472 10.1194H11.4453V11.9344L14.0956 11.935C13.9881 12.5389 13.6422 13.0537 13.1121 13.3969V14.5744H14.6898C15.6109 13.7544 16.1387 12.5422 16.1387 11.11Z" fill="#4285F4"/>
<path d="M13.1124 13.3969C12.6732 13.6818 12.1077 13.8484 11.4461 13.8484C10.1681 13.8484 9.08398 13.0201 8.69573 11.9036H7.06836V13.118C7.87461 14.6569 9.53171 15.7129 11.4461 15.7129C12.7693 15.7129 13.8809 15.2944 14.69 14.5739L13.1124 13.3969Z" fill="#34A853"/>
<path d="M8.54191 11.0028C8.54191 10.6893 8.59624 10.3862 8.69516 10.1013V8.8869H7.06779C6.73443 9.52325 6.54688 10.2416 6.54688 11.0028C6.54688 11.764 6.735 12.4823 7.06779 13.1186L8.69516 11.9042C8.59624 11.6193 8.54191 11.3163 8.54191 11.0028Z" fill="#FABB05"/>
<path d="M11.4461 8.15649C12.1683 8.15649 12.815 8.39574 13.3257 8.86324L14.7237 7.51959C13.8746 6.75894 12.7676 6.29199 11.4461 6.29199C9.53228 6.29199 7.87461 7.34799 7.06836 8.88689L8.69573 10.1013C9.08398 8.98479 10.1681 8.15649 11.4461 8.15649Z" fill="#E94235"/>
</g>
<defs>
<clipPath id="clip0_42_3245">
<rect width="43" height="22" fill="white"/>
</clipPath>
</defs>
</svg>
