<svg width="35" height="25" viewBox="0 0 35 25" fill="none" xmlns="http://www.w3.org/2000/svg">
<path d="M21.0234 5.87799H13.8184V18.826H21.0234V5.87799Z" fill="#FF5F00"/>
<path d="M14.2752 12.352C14.274 11.105 14.5566 9.87413 15.1014 8.75249C15.6463 7.63086 16.4392 6.64789 17.4202 5.87801C16.2054 4.92301 14.7464 4.32907 13.21 4.16408C11.6736 3.9991 10.1217 4.26973 8.73184 4.94503C7.34197 5.62033 6.17015 6.67304 5.35031 7.98287C4.53047 9.29269 4.0957 10.8068 4.0957 12.352C4.0957 13.8973 4.53047 15.4113 5.35031 16.7211C6.17015 18.0309 7.34197 19.0837 8.73184 19.759C10.1217 20.4343 11.6736 20.7049 13.21 20.5399C14.7464 20.375 16.2054 19.781 17.4202 18.826C16.4392 18.0561 15.6463 17.0732 15.1014 15.9515C14.5566 14.8299 14.274 13.599 14.2752 12.352Z" fill="#EB001B"/>
<path d="M30.7449 12.351C30.745 13.8962 30.3104 15.4102 29.4908 16.72C28.6711 18.0298 27.4994 19.0825 26.1096 19.7578C24.7199 20.4332 23.1681 20.7038 21.6318 20.5389C20.0955 20.3739 18.6366 19.78 17.4219 18.825C18.4019 18.0543 19.1942 17.0712 19.739 15.9497C20.2837 14.8283 20.5668 13.5978 20.5668 12.351C20.5668 11.1042 20.2837 9.87375 19.739 8.7523C19.1942 7.63084 18.4019 6.64771 17.4219 5.87702C18.6366 4.92205 20.0955 4.32812 21.6318 4.16315C23.1681 3.99819 24.7199 4.26884 26.1096 4.94416C27.4994 5.61948 28.6711 6.67222 29.4908 7.98203C30.3104 9.29184 30.745 10.8059 30.7449 12.351Z" fill="#F79E1B"/>
<path d="M29.958 17.454V17.189H30.065V17.135H29.793V17.189H29.9V17.454H29.958ZM30.487 17.454V17.134H30.404L30.304 17.354L30.204 17.134H30.121V17.454H30.18V17.213L30.27 17.421H30.331L30.421 17.213V17.455L30.487 17.454Z" fill="#F79E1B"/>
</svg>
