<svg width="35" height="11" viewBox="0 0 35 11" fill="none" xmlns="http://www.w3.org/2000/svg">
<path d="M22.797 0.000216291C20.3118 0.000216291 18.091 1.24975 18.091 3.55801C18.091 6.20485 22.0294 6.38834 22.0294 7.71825C22.0294 8.27847 21.3681 8.77942 20.2381 8.77942C19.2587 8.77318 18.296 8.5325 17.4355 8.07874L16.9224 10.4081C17.9457 10.7997 19.0359 11.0005 20.136 11C22.8531 11 24.991 9.68957 24.991 7.34152C24.991 4.54449 21.0358 4.36668 21.0358 3.13257C21.0358 2.69414 21.5791 2.21349 22.7058 2.21349C23.5037 2.22387 24.2904 2.39733 25.0145 2.72256L25.5167 0.472749C24.6481 0.153495 23.7259 -0.00672572 22.797 0.000216291ZM0.0602698 0.169906L0 0.509285C0.678052 0.637349 1.34306 0.823464 1.98723 1.06544C3.19932 1.49007 3.28638 1.7369 3.49397 2.50496L5.71558 10.8246H8.6981L13.2937 0.169906H10.317L7.36631 7.41378L6.16007 1.27329C6.11893 0.957651 5.95651 0.668687 5.70527 0.464137C5.45403 0.259586 5.13247 0.154511 4.80484 0.169906H0.0602698ZM14.4899 0.169906L12.1552 10.8246H14.9929L17.32 0.169906H14.4899ZM30.3174 0.169906C30.0178 0.166495 29.7256 0.26063 29.4877 0.437257C29.2497 0.613883 29.0797 0.8628 29.0048 1.1442L24.8471 10.8222H27.8229L28.3988 9.20892H32.0242L32.3741 10.8222H35L32.7097 0.169906H30.3174ZM30.7041 3.04813L31.5864 7.04599H29.2233L30.7041 3.04813Z" fill="white"/>
</svg>
